<?xml version="1.0" encoding="UTF-8" standalone="no"?>
<!-- Created with Inkscape (http://www.inkscape.org/) -->

<svg
   xmlns:dc="http://purl.org/dc/elements/1.1/"
   xmlns:cc="http://creativecommons.org/ns#"
   xmlns:rdf="http://www.w3.org/1999/02/22-rdf-syntax-ns#"
   xmlns:svg="http://www.w3.org/2000/svg"
   xmlns="http://www.w3.org/2000/svg"
   xmlns:sodipodi="http://sodipodi.sourceforge.net/DTD/sodipodi-0.dtd"
   xmlns:inkscape="http://www.inkscape.org/namespaces/inkscape"
   width="128"
   height="128"
   viewBox="0 0 33.866666 33.866668"
   version="1.1"
   id="svg8"
   inkscape:version="0.92.2 (30a58d1, 2017-08-07)"
   sodipodi:docname="app.svg">
  <defs
     id="defs2" />
  <sodipodi:namedview
     id="base"
     pagecolor="#ffffff"
     bordercolor="#666666"
     borderopacity="1.0"
     inkscape:pageopacity="0.0"
     inkscape:pageshadow="2"
     inkscape:zoom="1"
     inkscape:cx="-141.51101"
     inkscape:cy="82.406545"
     inkscape:document-units="mm"
     inkscape:current-layer="layer1"
     showgrid="false"
     units="px"
     inkscape:window-width="1301"
     inkscape:window-height="744"
     inkscape:window-x="65"
     inkscape:window-y="24"
     inkscape:window-maximized="1" />
  <metadata
     id="metadata5">
    <rdf:RDF>
      <cc:Work
         rdf:about="">
        <dc:format>image/svg+xml</dc:format>
        <dc:type
           rdf:resource="http://purl.org/dc/dcmitype/StillImage" />
        <dc:title></dc:title>
      </cc:Work>
    </rdf:RDF>
  </metadata>
  <g
     inkscape:label="Layer 1"
     inkscape:groupmode="layer"
     id="layer1"
     transform="translate(0,-263.13332)">
    <ellipse
       id="path10"
       cx="25.736618"
       cy="279.49622"
       style="fill:#6bb6f4;stroke-width:0.23662178;fill-opacity:1"
       rx="14.816994"
       ry="15.477801"
       transform="matrix(0.99946599,0.03267632,-0.0314478,0.9995054,0,0)" />
    <g
       id="g26"
       transform="matrix(0.26458333,0,0,0.26458333,10.583333,283.24166)">
      <path
         id="path12"
         d="M 0,0 V 48 H 48 V 0 Z m 46,32 c 0,2.21 -1.79,4 -4,4 H 6 C 3.79,36 2,34.21 2,32 V 16 c 0,-2.21 1.79,-4 4,-4 h 36 c 2.21,0 4,1.79 4,4 z"
         inkscape:connector-curvature="0"
         style="fill:none" />
      <path
         id="path14"
         d="M 42,12 H 6 c -2.21,0 -4,1.79 -4,4 v 16 c 0,2.21 1.79,4 4,4 h 36 c 2.21,0 4,-1.79 4,-4 V 16 c 0,-2.21 -1.79,-4 -4,-4 z M 22,26 h -6 v 6 H 12 V 26 H 6 v -4 h 6 v -6 h 4 v 6 h 6 z m 9,4 c -1.66,0 -3,-1.34 -3,-3 0,-1.66 1.34,-3 3,-3 1.66,0 3,1.34 3,3 0,1.66 -1.34,3 -3,3 z m 8,-6 c -1.66,0 -3,-1.34 -3,-3 0,-1.66 1.34,-3 3,-3 1.66,0 3,1.34 3,3 0,1.66 -1.34,3 -3,3 z"
         inkscape:connector-curvature="0" />
    </g>
    <g
       id="g42"
       transform="matrix(0.39136284,0,0,0.39136284,7.4083325,266.57292)">
      <path
         id="path28"
         d="m 18,23.5 c -1.38,0 -2.5,1.12 -2.5,2.5 0,1.38 1.12,2.5 2.5,2.5 1.38,0 2.5,-1.12 2.5,-2.5 0,-1.38 -1.12,-2.5 -2.5,-2.5 z m 12,0 c -1.38,0 -2.5,1.12 -2.5,2.5 0,1.38 1.12,2.5 2.5,2.5 1.38,0 2.5,-1.12 2.5,-2.5 0,-1.38 -1.12,-2.5 -2.5,-2.5 z M 24,4 C 12.95,4 4,12.95 4,24 4,35.05 12.95,44 24,44 35.05,44 44,35.05 44,24 44,12.95 35.05,4 24,4 Z m 0,36 C 15.18,40 8,32.82 8,24 c 0,-0.58 0.04,-1.15 0.1,-1.71 4.71,-2.09 8.47,-5.95 10.42,-10.74 3.62,5.1 9.57,8.45 16.31,8.45 1.55,0 3.06,-0.19 4.5,-0.53 0.43,1.44 0.67,2.96 0.67,4.53 0,8.82 -7.18,16 -16,16 z"
         inkscape:connector-curvature="0" />
      <path
         id="path30"
         d="M 0,0 H 48 V 48 H 0 Z"
         inkscape:connector-curvature="0"
         style="fill:none" />
    </g>
  </g>
</svg>
