<svg width="751" height="417" xmlns="http://www.w3.org/2000/svg">

 <metadata id="imagebot_24">image/svg+xml</metadata>
 <g id="imagebot_2" label="Layer 1">
  <path transform="translate(-18.7636 -66.2223) matrix(1 0 0 1 0 -452.362)" label="Layer 1" fill="#fde239" fill-rule="evenodd" stroke="#000000" stroke-width="0.48615px" id="imagebot_23" d="M119.7214,679.00942C112.47998,678.721 104.21949,679.71595 98.64762,684.3026C92.87533,689.05423 89.35427,697.11954 89.22252,704.54906C89.11517,710.60228 92.11264,716.89932 96.31203,721.30151C101.15025,726.3734 108.29777,729.80441 115.31227,730.48093C121.10871,731.03999 127.38083,729.27842 132.19749,726.03833C136.34698,723.24704 140.23072,717.80555 141.9229,713.13095C144.14237,706.99969 143.30023,699.00282 140.85265,692.95719C138.58136,687.347 134.07399,685.21596 128.84613,682.09242C126.09469,680.44851 122.93273,679.13732 119.7214,679.00942z"/>
  <path transform="translate(-18.7636 -66.2223) matrix(1 0 0 1 0 -452.362)" label="Layer 1" fill="#e28611" fill-rule="evenodd" stroke="#000000" stroke-width="0.48615px" id="imagebot_22" d="M245.67833,568.18434C245.67833,568.18434 198.65632,594.07246 176.13719,609.48029C157.73226,622.07313 148.66427,630.03845 129.50536,641.74023C123.55733,645.37312 112.79402,654.1382 103.80246,659.35029C93.81109,665.14194 81.73117,667.40266 72.58678,674.4325C61.09704,683.26535 53.24036,695.9723 44.33136,707.35581C38.09519,715.32412 36.17042,714.63287 30.74019,723.1595C29.6835,724.81874 32.84388,727.57042 30.47179,730.6173C27.61749,734.28358 19.33266,738.42885 20.22227,742.29554C20.69248,744.3393 22.82793,747.01667 25.66775,747.36863C32.51828,748.21769 75.41751,781.14128 74.4653,782.17663C74.91057,781.74162 27.52974,748.13397 22.36511,755.95425C19.31548,760.57199 18.9546,768.93944 21.74454,772.39414C24.83091,776.2159 26.24394,774.52615 28.47519,776.84281C36.48073,785.1548 34.49766,794.26571 38.70861,798.47097C60.42567,820.15871 81.9694,830.97979 105.63454,844.38132C130.3474,858.37614 156.98069,870.98726 184.13318,880.76259C205.44053,888.43359 228.30825,891.11755 249.87026,898.05666C261.90834,901.93078 273.48353,907.09317 285.29017,911.61143C302.28022,918.1133 318.04465,931.01538 336.2603,931.11708C339.97802,931.13778 342.99052,927.18896 346.70775,927.25248C353.34657,927.36595 358.52186,935.56906 365.11459,934.78798C375.3188,933.57902 385.89896,926.11726 390.01803,916.79873C392.67495,910.78798 382.97761,901.82577 387.72586,897.24761C397.11079,888.19892 415.24946,887.02349 429.61345,887.21814C436.99032,887.31814 444.07443,890.68456 450.97497,892.94995C474.72595,900.74723 499.54625,905.66493 524.42958,908.28323C544.64246,910.41009 566.00696,914.52016 585.4095,908.5228C603.88218,902.81287 625.4724,893.27195 633.0163,875.63373C639.55046,860.35633 632.84915,841.15149 624.97812,826.50447C621.44677,819.93307 608.52774,811.22329 608.52774,811.22329C608.52774,811.22329 675.51368,842.9368 711.41255,842.73334C728.09592,842.63874 747.97499,839.89419 759.05385,827.54857C770.19422,815.13444 768.12309,797.6966 766.41656,781.17926C764.12876,759.0356 747.96653,738.70499 742.62851,717.08189C738.67929,701.08449 743.68519,683.502 738.52799,667.84499C733.88665,653.75412 729.86405,632.49831 715.12213,629.89411C702.24671,627.61964 694.48567,645.80609 684.35565,653.99378C673.63369,662.65989 664.68133,673.79533 652.59575,680.47649C643.87043,685.30002 633.93782,687.90955 624.12263,689.77337C615.39375,691.4309 597.50703,691.36785 597.50703,691.36785C597.50703,691.36785 604.11271,660.09848 600.71852,643.1179C595.9302,619.16272 586.45426,595.3825 571.97958,575.60662C560.52068,559.95102 547.07401,540.43501 527.75946,537.55309C516.53391,535.87812 503.92431,542.59244 496.61291,551.18749C488.26932,560.9959 476.22605,586.98442 468.87791,583.77355C468.87791,583.77355 438.23591,572.74103 424.43679,564.35438C407.96328,554.3423 396.93158,536.38224 379.54857,528.01085C368.31946,522.60307 355.47311,520.19325 342.98829,519.9167C329.27777,519.61301 315.59511,523.06132 302.47707,527.01884C287.65021,531.49189 271.66632,535.59108 259.95003,545.63504C253.17627,551.44196 245.67833,568.18434 245.67833,568.18434z"/>
  <path transform="translate(-18.7636 -66.2223) matrix(1 0 0 1 0 -452.362)" label="Layer 1" fill="#fffafa" fill-rule="evenodd" stroke-width="0.48615px" id="imagebot_20" d="M600.56414,695.1692C600.56414,695.1692 606.32978,727.4195 606.52128,743.35031C606.75473,762.77337 602.05053,765.40285 599.73898,784.69209C599.29661,788.38357 598.62706,807.79374 598.62706,807.79374C615.52553,807.86634 633.61072,810.8213 642.82067,818.20203C642.07483,794.00706 645.1802,769.75573 647.2604,747.0231C649.33183,724.38651 644.02272,704.06607 656.32741,679.97293C639.25531,688.60019 620.2685,697.03048 600.56414,695.1692z"/>
  <path transform="translate(-18.7636 -66.2223) matrix(1 0 0 1 0 -452.362)" label="Layer 1" fill="#000000" fill-rule="evenodd" stroke="#000000" stroke-width="0.48615px" d="M704.08791,648.60846C694.29028,646.10964 684.288,659.25423 675.74044,666.40019C667.44765,673.33316 655.22424,681.25855 653.94742,690.351C653.94742,690.351 648.41957,745.64907 649.11216,763.41781C649.57571,775.31033 641.49422,805.00205 649.22889,814.11486C658.27819,824.77652 701.96476,838.94221 725.16849,827.9226C740.74174,820.52676 745.64601,799.38056 749.75328,782.7754C751.75876,774.66756 751.02551,765.92597 749.39524,757.73614C747.15337,746.47392 739.9253,736.55337 736.65459,725.69165C730.79317,706.22509 731.73646,696.74728 725.6754,674.17616C722.98024,664.13947 714.07332,651.15516 704.08791,648.60846z" id="imagebot_19"/>
  <path transform="translate(-18.7636 -66.2223) matrix(1 0 0 1 0 -452.362)" label="Layer 1" fill="#df5b09" fill-rule="evenodd" stroke="#000000" stroke-width="0.48615px" id="imagebot_18" d="M693.84703,664.01445C682.87594,662.60087 674.98351,672.35302 665.49956,681.80618C657.71437,689.5661 654.01211,726.23468 653.63513,726.27011C653.63513,726.27011 649.52134,761.73967 650.21395,779.50841C650.67749,791.40093 647.53588,805.74723 655.27056,814.86003C664.31985,825.52169 681.42379,829.24528 695.41313,827.76501C707.2075,826.517 720.64153,820.43676 726.16807,810.04939C734.45381,794.47595 742.17381,769.62859 737.84817,749.65186C733.42395,729.21989 725.34602,708.34417 715.43452,689.58215C710.23504,679.73977 704.97512,665.44826 693.84703,664.01445z"/>
  <path transform="translate(-18.7636 -66.2223) matrix(1 0 0 1 0 -452.362)" label="Layer 1" fill="#df5b09" fill-rule="evenodd" stroke-width="1px" id="imagebot_17" d="M589.93693,684.69391C596.51315,664.03532 580.45671,634.98695 568.74488,616.68992C557.98297,599.8769 543.02541,584.95659 525.55222,578.03262C515.6689,574.11623 504.00169,569.04218 494.55393,574.1703C479.59985,582.28718 481.44909,602.76797 481.46566,616.64662C481.48806,635.40405 463.98461,650.25346 458.08597,668.14408C450.42119,691.39133 442.51779,713.25657 442.73952,739.91545C442.95118,765.36378 441.65483,790.85847 443.20006,816.26169C444.41789,836.28256 435.77289,859.50863 450.13338,876.04049C457.76193,884.82252 470.58109,888.15985 482.23669,889.18802C503.2353,891.04033 524.73624,890.39044 545.41668,886.33816C567.18993,882.07174 601.27064,856.12057 602.10585,835.2494C602.71632,819.9938 592.58462,822.27307 593.77232,807.05083C595.74459,781.77337 600.88417,756.72283 601.49004,731.3772C601.76621,719.82337 606.59545,706.02678 599.62411,696.75521C595.84443,691.72839 581.74712,690.40531 581.74712,690.40531C581.74712,690.40531 588.93341,687.84635 589.93693,684.69391z"/>
  <path transform="translate(-18.7636 -66.2223) matrix(1 0 0 1 0 -452.362)" label="Layer 1" fill="#da4e08" fill-rule="evenodd" stroke-width="1px" id="imagebot_16" d="M284.67986,844.54484C284.67986,844.54484 313.53856,864.96641 330.06342,864.36968C348.21881,863.71405 381.01044,841.95819 381.01044,841.95819L379.06399,832.99682L383.92488,829.45141L379.74361,824.90278L386.06738,821.42576L383.6139,817.53834L389.3387,814.32353L386.02134,810.1055L392.01105,807.4835L388.09471,803.52767L392.88649,801.43007L388.70522,796.88143L394.43001,793.66663L390.7786,790.30359L394.70648,787.87539L390.45609,784.77456L395.45521,778.33354L388.73983,777.72932L395.20183,771.3567L390.28335,769.96588L392.55255,765.42866L383.10722,766.72824L391.10121,758.97621L381.13756,752.70615L387.1964,748.63636L382.8769,746.98333L386.34404,741.92171L379.89358,741.91031L380.96482,737.8975L373.65045,737.55547L377.18671,731.04604L373.13213,729.98583L371.08184,723.79558L365.23034,723.52197L361.38311,718.11833L348.28637,716.05488C348.28637,716.05488 337.72522,713.48593 332.79374,715.04024C316.19106,720.27308 304.72392,735.65188 292.23638,747.67852C288.59717,751.1834 283.67366,756.43448 279.76088,759.63765C276.54695,762.2687 274.47157,762.42774 271.45661,765.28017C263.49075,772.81665 253.71778,792.89109 253.71778,792.89109C253.71778,792.89109 269.15853,777.4672 278.41386,779.24527C290.83861,781.63222 299.72089,796.23249 302.23443,808.50929C303.92755,816.77893 299.31787,825.45589 295.20796,832.84843C292.66464,837.42315 284.67986,844.54487 284.67986,844.54487L284.67986,844.54484z"/>
  <path transform="translate(-18.7636 -66.2223) matrix(1 0 0 1 0 -452.362)" label="Layer 1" fill="#000000" fill-rule="evenodd" stroke="#000000" stroke-width="0.48615px" id="imagebot_15" d="M383.45543,890.67987C376.00863,880.85062 362.81347,884.52535 350.44084,883.53153C343.12612,882.94398 328.62352,888.38961 328.62352,888.38961C328.62352,888.38961 318.3086,889.80322 317.1809,892.38987C313.80772,900.12699 315.86929,895.15376 309.22749,900.42617C306.48145,902.60604 292.54007,906.15262 293.07244,909.59652C294.32964,917.72949 315.14372,924.4001 323.20824,926.39748C331.79008,928.52298 339.59208,924.02725 348.23975,925.87308C353.62593,927.02275 360.84522,933.20724 366.34226,932.83301C376.33501,932.15271 376.50102,924.71908 381.16979,915.94861C384.45146,909.78389 387.67904,896.25473 383.45543,890.67987z"/>
  <path transform="translate(-18.7636 -66.2223) matrix(1 0 0 1 0 -452.362)" label="Layer 1" fill="#df5b09" fill-rule="evenodd" stroke-width="1px" id="imagebot_14" d="M331.88331,887.67141C351.30181,880.05371 378.80787,895.08695 390.15826,888.61907C394.84255,885.94979 400.22746,876.50359 396.88329,871.26689C390.4839,861.24595 377.95329,871.27089 361.05656,868.52185C339.56481,865.02536 294.05712,869.67675 285.60135,849.81168C283.20404,844.17973 291.96188,840.68594 296.74846,836.8251C332.46374,808.01727 288.35829,774.69105 260.99763,775.52878C245.24256,776.01117 239.78011,814.58534 237.64915,816.22695C235.51819,817.86856 206.1621,840.22925 189.10932,850.23323C179.14875,856.07657 157.89365,865.31543 157.89365,865.31543C157.89365,865.31543 190.33987,879.63791 207.53735,882.56661C246.32787,889.17257 284.56485,910.35285 295.12535,915.10263C301.40108,917.92525 306.24534,907.64113 311.77165,903.56305C318.64884,898.48811 323.90849,890.79986 331.88331,887.67141z"/>
  <path transform="translate(-18.7636 -66.2223) matrix(1 0 0 1 0 -452.362)" label="Layer 1" fill="#ffffff" fill-rule="evenodd" stroke-width="1px" id="imagebot_13" d="M112.27723,654.19237C114.93804,653.73637 133.52616,664.84805 143.34606,672.51747C149.52527,677.34348 155.18756,683.03611 159.54129,689.52641C164.97506,697.6268 167.95327,707.12125 171.46305,716.20259C174.52083,724.11439 177.9784,732.01749 179.39937,740.37076C181.83614,754.69557 179.35027,769.44283 180.25163,783.94182C180.7307,791.64843 176.86542,801.82303 182.67051,806.98136C185.50752,809.5023 190.77033,808.75887 194.10854,806.93586C205.13548,800.91375 208.80458,786.55653 214.38152,775.38053C222.03882,760.03554 233.16565,742.5326 231.55687,724.82517C229.98678,707.54347 215.8543,693.70014 206.16981,679.23625C201.5294,672.30573 190.58422,659.6356 190.58422,659.6356L160.55505,643.72103C154.86348,640.08955 149.48962,636.16173 142.63449,633.61543C124.66679,644.7452 120.77508,647.91905 112.27723,654.19245L112.27723,654.19237z"/>
  <path transform="translate(-18.7636 -66.2223) matrix(1 0 0 1 0 -452.362)" label="Layer 1" fill="#f9ab1a" fill-rule="evenodd" stroke="#000000" stroke-width="0.48615px" id="imagebot_11" d="M66.98839,791.70496C57.50377,786.86599 51.02709,776.65128 40.8871,773.3622C34.94643,771.43522 26.79944,777.18493 22.13469,773.06574C18.84219,770.15832 19.5165,763.62658 20.42186,760.07459C21.27793,756.71599 21.92882,754.53947 24.28792,753.77205C31.21719,751.51795 38.68958,759.19592 44.52629,762.00666C53.62035,766.38603 71.06603,779.99711 71.06603,779.99711C71.06603,779.99711 51.1424,763.10361 40.25362,755.92009C35.34347,752.68078 29.5795,750.65346 24.78228,747.40416C22.87769,746.11414 18.76356,745.36785 19.01926,742.77839C19.37768,739.14873 24.88834,735.41173 30.50055,730.89167C37.0871,725.58687 47.13855,736.49607 53.64989,739.42423C60.16124,742.35239 65.09376,744.07536 69.66084,748.00853C74.22792,751.94168 77.17124,757.39586 80.40774,762.44104C83.34248,767.01582 86.34728,771.64783 88.22888,776.73673C89.30308,779.64193 91.04234,782.8604 90.14096,785.82259C88.72623,790.47184 84.46655,794.99758 79.68197,796.07123C75.31339,797.05151 70.96995,793.73632 66.98839,791.70496z"/>
  <path transform="translate(-18.7636 -66.2223) matrix(1 0 0 1 0 -452.362)" label="Layer 1" fill="#000000" fill-rule="evenodd" stroke="#000000" stroke-width="0.48615px" id="imagebot_10" d="M305.65555,734.59228C307.52159,732.35788 355.40669,676.67266 376.19194,648.79769C389.16812,631.3954 402.84673,614.11368 412.14627,594.54172C416.82204,584.70106 421.84509,563.36256 421.84509,563.36256C421.84509,563.36256 420.69616,552.86738 417.54866,548.94147C407.07261,535.87456 389.7452,528.93699 373.57039,524.24881C359.23426,520.09356 344.94815,518.58447 330.62609,519.94563C308.95029,522.00568 283.6653,531.35464 268.07182,538.58039C258.42984,543.04831 250.55688,559.16306 243.23379,569.59036C240.22009,573.88157 251.24796,573.45752 251.24796,573.45752L367.22355,540.49388L393.91227,564.9585L381.09732,580.9772L305.65555,734.59228z"/>
  <path transform="translate(-18.7636 -66.2223) matrix(1 0 0 1 0 -452.362)" label="Layer 1" fill="#e45a14" fill-rule="evenodd" stroke-width="0.48615px" id="imagebot_9" d="M389.22413,583.3126L410.13057,569.19937C410.13057,569.19937 391.11323,568.31011 392.97926,566.0757C394.84529,563.84129 403.96811,557.01268 403.96811,557.01268L381.03442,552.1676L387.9687,542.04434C387.9687,542.04434 369.7919,542.18434 367.39601,543.23314C365.00013,544.28194 361.97767,533.70979 361.97767,533.70979L344.12861,535.23331L328.20008,536.40219C328.20008,536.40219 330.67481,526.01571 328.27888,527.06451C325.88298,528.11331 318.43039,530.6669 313.63861,532.7645L298.06533,539.5817C298.06533,539.5817 304.13571,529.12786 297.54701,532.01205C290.95832,534.89626 282.446,535.07864 276.65209,539.74125C270.85818,544.40386 259.46618,555.7697 259.46618,555.7697L249.59462,572.14016L389.22413,583.3126z"/>
  <path transform="translate(-18.7636 -66.2223) matrix(1 0 0 1 0 -452.362)" label="Layer 1" fill="#df5b09" fill-rule="evenodd" stroke-width="1px" id="imagebot_8" d="M279.94572,760.03705C306.0657,748.48504 311.73302,716.73582 328.882,694.07173C346.01499,671.42878 364.11325,645.12976 379.77871,621.46859C385.05567,613.49823 393.97868,606.9358 395.5824,597.53989C396.43133,592.56622 395.76171,586.13105 391.88495,582.85661C376.7232,570.05043 351.71056,582.27792 332.31032,577.74921C321.35429,575.19168 312.08081,566.82401 300.91009,565.44988C282.70611,563.21057 250.53185,570.65027 246.33903,572.48567C242.14623,574.32107 214.41658,588.5982 199.28436,598.04707C185.15871,606.86742 158.61204,627.01006 158.61204,627.01006C158.61204,627.01006 185.27211,638.0543 195.85981,647.40326C208.32247,658.40783 217.38861,673.04308 224.93715,687.78835C228.41335,694.57872 229.00251,702.26069 232.16913,709.47426C236.71036,719.81915 232.02271,734.37423 230.07596,746.62722C225.75298,773.83639 184.96954,812.52655 208.91649,826.56002C236.96514,842.99718 275.75527,761.89036 279.94572,760.03705z"/>
  <path transform="translate(-18.7636 -66.2223) matrix(1 0 0 1 0 -452.362)" label="Layer 1" fill="#000000" fill-rule="evenodd" stroke="#000000" stroke-width="0.48615px" id="imagebot_7" d="M142.97085,633.52088C146.16153,634.25049 186.34974,658.37998 202.09604,677.03402C214.1932,691.36502 225.86761,707.97855 227.2537,727.21908C228.59327,745.81386 219.82103,761.69142 212.51548,777.61486C206.78268,790.1103 199.45506,796.74643 191.989,810.65419C189.69857,814.92079 191.976,822.12037 191.24683,827.32545C190.52603,832.47085 188.39202,835.78291 189.39751,840.33649C190.1211,843.61341 194.16602,848.72843 194.16602,848.72843L197.51801,833.79435L208.94452,840.13282L202.97787,829.98674L211.08703,832.10718L210.49959,825.98534L217.53749,832.11859L213.03371,822.04092L211.44414,818.48411L220.15225,820.34233L231.32538,819.70395L220.02555,816.85391L212.51539,814.47128L228.74521,812.32811L219.77217,809.87707L217.91767,805.72744L228.29601,803.31066L223.64247,802.51264L229.78746,797.22036L221.29754,795.54599L223.85047,789.18762L225.42794,771.25366L229.42493,767.37764L236.85445,777.59213C236.85445,777.59213 228.89508,766.19203 232.02817,761.98542C235.16127,757.77881 244.0652,761.67766 244.0652,761.67766L237.49958,751.79378L243.95004,751.80518L240.56355,749.03495L249.74394,747.14257L239.37714,743.17531C239.37714,743.17531 238.0525,740.2113 244.37627,736.7343C250.70004,733.25728 245.44752,732.72148 245.44752,732.72148C245.44752,732.72148 256.29813,726.55406 253.30327,727.86507C250.3084,729.17606 246.78369,729.30145 246.78369,729.30145L250.25083,724.23984L242.4642,727.64843L252.58914,718.25481L241.54272,722.38161L250.80376,712.65737L242.48727,714.88037C242.48727,714.88037 249.9514,705.94273 247.55551,706.99152L231.98223,713.80872L239.45789,698.48706L231.79795,705.38408L232.35088,693.80161L227.54756,702.28326L228.98318,688.56472C228.98318,688.56472 227.26271,675.8511 222.88562,669.26185C218.50855,662.6726 202.08091,649.82171 190.06637,642.29675C178.92097,635.31618 154.19168,625.77384 154.19168,625.77384L142.97085,633.52088z"/>
  <path transform="translate(-18.7636 -66.2223) matrix(1 0 0 1 0 -452.362)" label="Layer 1" fill="#ffffff" fill-rule="evenodd" stroke-width="1px" id="imagebot_4" d="M468.76857,590.02523C480.64983,586.00346 429.50026,570.92977 421.8686,563.72281C417.2349,559.34695 380.2533,674.7633 318.47405,722.60529C318.47405,722.60529 351.08512,695.07383 366.63939,689.61682C379.12705,685.2357 390.73822,693.8359 398.73275,701.99119C410.9427,714.44672 412.50851,734.11642 416.33698,751.05194C419.22352,763.82072 422.32922,777.19059 420.25627,790.11319C416.90429,811.0092 408.23918,832.04732 394.46442,848.22734C386.04647,858.11519 361.77434,869.62519 361.77434,869.62519C361.77434,869.62519 380.96417,870.65442 390.50195,869.80766C394.29941,869.47052 399.31068,864.81661 401.74419,867.72148C407.32561,874.38403 382.97667,902.30448 391.38882,894.22661C404.67421,881.4691 426.57549,888.31701 435.09198,874.84804C456.34596,841.23452 433.83307,794.19108 432.0185,755.57961C430.54563,724.23906 438.64077,692.73649 446.73671,662.3266C451.34163,645.02963 461.30058,629.4444 465.84633,612.14356C466.8548,608.30538 467.10941,604.30988 467.62373,600.37686C468.07391,596.93444 464.14958,591.58876 468.76857,590.02523z"/>
  <title>Layer 1</title>

  <metadata id="imagebot_35">image/svg+xmllogoabril 2011M Mlogolentesglassesverdeblancogrisnegrologo de un website</metadata>
  <path transform="matrix(0.959047 0 0 0.959047 -92.7194 -143.229)" label="Capa 1" fill="rgb(255, 255, 255)" stroke="rgb(0, 0, 0)" stroke-width="5.7" stroke-miterlimit="4" stroke-opacity="0.61497" id="imagebot_32" d="M 240.90349964904783 363.85179037231444 C 240.90349964904783 383.57020037231445 224.91857964904784 399.55512037231443 205.20016964904787 399.55512037231443 C 185.48176964904786 399.55512037231443 169.49684964904785 383.57020037231445 169.49684964904785 363.85179037231444 C 169.49684964904785 344.13339037231447 185.48176964904786 328.1484703723145 205.20016964904787 328.1484703723145 C 224.91857964904784 328.1484703723145 240.90349964904783 344.13339037231447 240.90349964904783 363.85179037231444 z"/>
  <path label="Capa 1" opacity="0.83857" fill="rgb(0, 0, 0)" transform="matrix(0.972944 0 0 0.972944 -114.136 -86.7544)" d="M244.28591,306.53854C244.28591,313.28431 238.48085,318.75284 231.31996,318.75284C224.15907,318.75284 218.35402,313.28431 218.35402,306.53854C218.35402,299.79277 224.15907,294.32425 231.31996,294.32425C238.48085,294.32425 244.28591,299.79277 244.28591,306.53854z" id="imagebot_29"/>
 </g>
</svg>